<svg aria-hidden="true" style="position: absolute; width: 0; height: 0; overflow: hidden;" version="1.1"
    xmlns="http://www.w3.org/2000/svg" xmlns:xlink="http://www.w3.org/1999/xlink">
    <defs>
        <symbol id="icon-mail" viewBox="0 0 32 32">
            <path fill="none" stroke="#9da4bd" style="stroke: var(--color1, #9da4bd)" stroke-linejoin="round"
                stroke-linecap="round" stroke-miterlimit="4" stroke-width="1.3333"
                d="M6.4 6.667h19.2c1.32 0 2.4 1.050 2.4 2.333v14c0 1.283-1.080 2.333-2.4 2.333h-19.2c-1.32 0-2.4-1.050-2.4-2.333v-14c0-1.283 1.080-2.333 2.4-2.333z">
            </path>
            <path fill="none" stroke="#9da4bd" style="stroke: var(--color1, #9da4bd)" stroke-linejoin="round"
                stroke-linecap="round" stroke-miterlimit="4" stroke-width="1.3333" d="M26.667 9.333l-10.667 8-10.667-8">
            </path>
        </symbol>
        <symbol id="icon-phone" viewBox="0 0 32 32">
            <path fill="none" stroke="#9da4bd" style="stroke: var(--color1, #9da4bd)" stroke-linejoin="round"
                stroke-linecap="round" stroke-miterlimit="4" stroke-width="1.3333"
                d="M26.666 21.337v3.218c0.002 0.604-0.25 1.181-0.695 1.589s-1.042 0.61-1.643 0.556c-3.301-0.359-6.471-1.487-9.257-3.293-2.592-1.647-4.789-3.844-6.436-6.436-1.813-2.798-2.941-5.984-3.293-9.3-0.054-0.6 0.146-1.195 0.552-1.639s0.98-0.698 1.582-0.699h3.218c1.077-0.011 1.995 0.779 2.145 1.845 0.136 1.030 0.388 2.041 0.751 3.014 0.295 0.784 0.106 1.668-0.483 2.263l-1.362 1.362c1.527 2.685 3.75 4.909 6.436 6.436l1.362-1.362c0.596-0.589 1.479-0.777 2.263-0.483 0.973 0.363 1.984 0.615 3.014 0.751 1.079 0.152 1.872 1.088 1.845 2.177z">
            </path>
        </symbol>
        <symbol id="icon-map-pin" viewBox="0 0 32 32">
            <path fill="none" stroke="#9da4bd" style="stroke: var(--color1, #9da4bd)" stroke-linejoin="round"
                stroke-linecap="round" stroke-miterlimit="4" stroke-width="1.3333"
                d="M26.667 13.818c0 7.636-10.667 14.182-10.667 14.182s-10.667-6.545-10.667-14.182c0-5.422 4.776-9.818 10.667-9.818s10.667 4.396 10.667 9.818v0z">
            </path>
            <path fill="none" stroke="#9da4bd" style="stroke: var(--color1, #9da4bd)" stroke-linejoin="round"
                stroke-linecap="round" stroke-miterlimit="4" stroke-width="1.3333"
                d="M16 18.667c2.209 0 4-1.791 4-4s-1.791-4-4-4-4 1.791-4 4c0 2.209 1.791 4 4 4z"></path>
        </symbol>
        <symbol id="icon-linkedin" viewBox="0 0 32 32">
            <path
                d="M31.992 32v-0.001h0.008v-11.736c0-5.741-1.236-10.164-7.948-10.164-3.227 0-5.392 1.771-6.276 3.449h-0.093v-2.913h-6.364v21.364h6.627v-10.579c0-2.785 0.528-5.479 3.977-5.479 3.399 0 3.449 3.179 3.449 5.657v10.401h6.62z">
            </path>
            <path d="M0.528 10.636h6.635v21.364h-6.635v-21.364z"></path>
            <path
                d="M3.843 0c-2.121 0-3.843 1.721-3.843 3.843s1.721 3.879 3.843 3.879c2.121 0 3.843-1.757 3.843-3.879-0.001-2.121-1.723-3.843-3.843-3.843v0z">
            </path>
        </symbol>
        <symbol id="icon-facebook" viewBox="0 0 32 32">
            <path
                d="M21.329 5.313h2.921v-5.088c-0.504-0.069-2.237-0.225-4.256-0.225-4.212 0-7.097 2.649-7.097 7.519v4.481h-4.648v5.688h4.648v14.312h5.699v-14.311h4.46l0.708-5.688h-5.169v-3.919c0.001-1.644 0.444-2.769 2.735-2.769z">
            </path>
        </symbol>
        <symbol id="icon-twitter" viewBox="0 0 32 32">
            <path
                d="M32 6.078c-1.19 0.522-2.458 0.868-3.78 1.036 1.36-0.812 2.398-2.088 2.886-3.626-1.268 0.756-2.668 1.29-4.16 1.588-1.204-1.282-2.92-2.076-4.792-2.076-3.632 0-6.556 2.948-6.556 6.562 0 0.52 0.044 1.020 0.152 1.496-5.454-0.266-10.28-2.88-13.522-6.862-0.566 0.982-0.898 2.106-0.898 3.316 0 2.272 1.17 4.286 2.914 5.452-1.054-0.020-2.088-0.326-2.964-0.808 0 0.020 0 0.046 0 0.072 0 3.188 2.274 5.836 5.256 6.446-0.534 0.146-1.116 0.216-1.72 0.216-0.42 0-0.844-0.024-1.242-0.112 0.85 2.598 3.262 4.508 6.13 4.57-2.232 1.746-5.066 2.798-8.134 2.798-0.538 0-1.054-0.024-1.57-0.090 2.906 1.874 6.35 2.944 10.064 2.944 12.072 0 18.672-10 18.672-18.668 0-0.29-0.010-0.57-0.024-0.848 1.302-0.924 2.396-2.078 3.288-3.406z">
            </path>
        </symbol>
        <symbol id="icon-instagram" viewBox="0 0 32 32">
            <path
                d="M31.969 9.408c-0.075-1.7-0.35-2.869-0.744-3.882-0.406-1.075-1.032-2.038-1.851-2.838-0.8-0.813-1.769-1.444-2.832-1.844-1.019-0.394-2.182-0.669-3.882-0.744-1.713-0.081-2.257-0.1-6.601-0.1s-4.888 0.019-6.595 0.094c-1.7 0.075-2.869 0.35-3.882 0.744-1.075 0.406-2.038 1.031-2.838 1.85-0.813 0.8-1.444 1.769-1.844 2.832-0.394 1.019-0.669 2.182-0.744 3.882-0.081 1.713-0.1 2.257-0.1 6.601s0.019 4.888 0.094 6.595c0.075 1.7 0.35 2.869 0.744 3.882 0.406 1.075 1.038 2.038 1.85 2.838 0.8 0.813 1.769 1.444 2.832 1.844 1.019 0.394 2.182 0.669 3.882 0.744 1.706 0.075 2.25 0.094 6.595 0.094s4.888-0.019 6.595-0.094c1.7-0.075 2.869-0.35 3.882-0.744 2.151-0.832 3.851-2.532 4.682-4.682 0.394-1.019 0.669-2.182 0.744-3.882 0.075-1.707 0.094-2.251 0.094-6.595s-0.006-4.888-0.081-6.595zM29.087 22.473c-0.069 1.563-0.331 2.407-0.55 2.969-0.538 1.394-1.644 2.5-3.038 3.038-0.563 0.219-1.413 0.481-2.969 0.55-1.688 0.075-2.194 0.094-6.464 0.094s-4.782-0.019-6.464-0.094c-1.563-0.069-2.407-0.331-2.969-0.55-0.694-0.256-1.325-0.663-1.838-1.194-0.531-0.519-0.938-1.144-1.194-1.838-0.219-0.563-0.481-1.413-0.55-2.969-0.075-1.688-0.094-2.194-0.094-6.464s0.019-4.782 0.094-6.464c0.069-1.563 0.331-2.407 0.55-2.969 0.256-0.694 0.663-1.325 1.2-1.838 0.519-0.531 1.144-0.938 1.838-1.194 0.563-0.219 1.413-0.481 2.969-0.55 1.688-0.075 2.194-0.094 6.464-0.094 4.276 0 4.782 0.019 6.464 0.094 1.563 0.069 2.407 0.331 2.969 0.55 0.694 0.256 1.325 0.662 1.838 1.194 0.531 0.519 0.938 1.144 1.194 1.838 0.219 0.563 0.481 1.413 0.55 2.969 0.075 1.688 0.094 2.194 0.094 6.464s-0.019 4.77-0.094 6.458z">
            </path>
            <path
                d="M16.059 7.783c-4.538 0-8.22 3.682-8.22 8.22s3.682 8.22 8.22 8.22c4.539 0 8.22-3.682 8.22-8.22s-3.682-8.22-8.22-8.22zM16.059 21.335c-2.944 0-5.332-2.388-5.332-5.332s2.388-5.332 5.332-5.332c2.944 0 5.332 2.388 5.332 5.332s-2.388 5.332-5.332 5.332z">
            </path>
            <path
                d="M26.524 7.458c0 1.060-0.859 1.919-1.919 1.919s-1.919-0.859-1.919-1.919c0-1.060 0.859-1.919 1.919-1.919s1.919 0.859 1.919 1.919z">
            </path>
        </symbol>
        <symbol id="icon-plus" viewBox="0 0 32 32">
            <path
                d="M18.417 13.028h11.111v4.944h-11.111v11.222h-4.944v-11.222h-11.083v-4.944h11.083v-11.333h4.944v11.333z">
            </path>
        </symbol>
        <symbol id="icon-logo" viewBox="0 0 38 32">
            <path
                d="M21.41 9.64l-0.709-0.571c-0.111-0.095-0.252-0.139-0.394-0.124s-0.272 0.088-0.363 0.204l-9.806 11.897 0.152 0.177 2.428-2.366c-0.081-0.034-0.148-0.098-0.189-0.179s-0.055-0.175-0.037-0.265c0.017-0.090 0.064-0.171 0.132-0.229s0.153-0.088 0.24-0.087c0.079 0 0.155 0.027 0.219 0.076s0.11 0.119 0.133 0.198l3.202-3.137c0.049-0.042 0.11-0.064 0.173-0.064s0.124 0.023 0.173 0.064l0.162 0.126c0.055 0.042 0.123 0.060 0.19 0.052s0.129-0.043 0.173-0.097l4.186-4.96c0.044-0.049 0.078-0.108 0.1-0.172s0.029-0.133 0.023-0.2c-0.006-0.068-0.026-0.133-0.058-0.192s-0.076-0.11-0.129-0.149z">
            </path>
            <path
                d="M26.018 12.989c-2.146 1.613-4.55 2.804-7.096 3.514-2.527 0.679-5.113 1.085-7.718 1.211 0.052 0.406 0.147 0.804 0.281 1.189 1.471 1.406 12.548-0.994 14.711-3.771 0.46-0.577-0.178-2.143-0.178-2.143zM12.864 18.857c-0.073 0-0.144-0.023-0.204-0.066s-0.108-0.103-0.136-0.174c-0.028-0.071-0.035-0.149-0.021-0.224s0.049-0.145 0.101-0.199 0.117-0.091 0.188-0.106c0.071-0.015 0.145-0.007 0.212 0.022s0.125 0.079 0.165 0.143 0.062 0.139 0.062 0.216c0.001 0.051-0.008 0.102-0.026 0.15s-0.045 0.091-0.080 0.127-0.075 0.065-0.12 0.084c-0.045 0.019-0.093 0.029-0.142 0.028z">
            </path>
            <path
                d="M2.399 12.166l0.087-0.394 1.406 0.337c0.116 0.226 0.188 0.475 0.211 0.731 0.027 0.271 0.010 0.546-0.049 0.811-0.070 0.369-0.23 0.712-0.465 0.994-0.223 0.267-0.511 0.464-0.833 0.571-0.332 0.108-0.684 0.122-1.022 0.040-0.339-0.077-0.651-0.251-0.903-0.503-0.248-0.242-0.426-0.553-0.514-0.897-0.097-0.374-0.097-0.769 0-1.143 0.058-0.28 0.162-0.547 0.308-0.789 0.138-0.22 0.323-0.402 0.541-0.531l0.195 0.314c-0.186 0.121-0.346 0.282-0.47 0.473s-0.206 0.408-0.244 0.635c-0.067 0.296-0.061 0.604 0.016 0.897 0.073 0.278 0.217 0.529 0.416 0.726 0.205 0.21 0.462 0.354 0.741 0.417 0.271 0.080 0.557 0.080 0.827 0 0.259-0.090 0.492-0.25 0.676-0.463 0.189-0.23 0.319-0.507 0.379-0.806 0.089-0.362 0.066-0.744-0.065-1.091l-1.239-0.331z">
            </path>
            <path
                d="M5.46 8.571l-1.26 1.777 0.541 1.023-0.249 0.354-2.001-3.857 0.233-0.337 4.073 0.926-0.254 0.354-1.082-0.24zM5.103 8.48l-2.163-0.514 1.082 2.051 1.082-1.537z">
            </path>
            <path d="M5.103 4.886l0.325-0.257 2.061 2.914 1.698-1.343 0.206 0.291-2.017 1.594-2.272-3.2z"></path>
            <path d="M8.51 2.503l0.362-0.171 1.428 3.303 1.931-0.926 0.141 0.331-2.293 1.103-1.569-3.64z"></path>
            <path
                d="M15.639 3.817l0.081 0.36-2.607 0.646-0.865-3.897 2.531-0.623 0.076 0.354-2.163 0.531 0.308 1.383 1.904-0.474 0.081 0.354-1.909 0.469 0.325 1.446 2.239-0.549z">
            </path>
            <path
                d="M19.354 3.96l-0.903-1.257c-0.101 0.006-0.202 0.006-0.303 0l-1.017 0.034 0.038 1.269h-0.4l-0.124-4 1.439-0.006c0.407-0.040 0.814 0.076 1.147 0.326 0.14 0.119 0.253 0.271 0.33 0.443s0.116 0.361 0.113 0.551c0.016 0.282-0.054 0.563-0.2 0.8-0.155 0.228-0.375 0.398-0.627 0.486l0.947 1.337-0.438 0.017zM18.976 2.080c0.097-0.094 0.173-0.211 0.22-0.34s0.067-0.269 0.055-0.408c0.003-0.139-0.024-0.278-0.080-0.405s-0.137-0.238-0.239-0.327c-0.249-0.179-0.549-0.261-0.849-0.234l-1.028 0.040 0.065 2 1.006-0.034c0.307 0.012 0.608-0.091 0.849-0.291z">
            </path>
            <path
                d="M22.216 2.897l-0.195 1.366-0.395-0.063 0.2-1.343-1.12-2.857 0.422 0.069 0.957 2.434 1.623-2.017 0.379 0.086-1.871 2.326z">
            </path>
            <path
                d="M27.565 2.657l0.471 0.646-0.206 0.171-0.471-0.663-0.297 0.749-0.227-0.103 0.303-0.749-0.779 0.109v-0.274l0.768-0.091-0.476-0.646 0.211-0.171 0.416 0.651 0.292-0.754 0.233 0.103-0.276 0.766 0.779-0.114v0.28l-0.741 0.091z">
            </path>
            <path
                d="M29.371 7.263c-0.128-0.208-0.207-0.445-0.233-0.691l0.319-0.149c0.024 0.226 0.094 0.445 0.206 0.64 0.121 0.219 0.278 0.412 0.465 0.571 0.193 0.195 0.439 0.321 0.703 0.36 0.096 0.009 0.192-0.006 0.28-0.045s0.167-0.1 0.228-0.178c0.045-0.052 0.079-0.114 0.1-0.181s0.030-0.138 0.024-0.208c-0.018-0.139-0.062-0.273-0.13-0.394-0.102-0.175-0.212-0.345-0.33-0.509-0.144-0.199-0.274-0.409-0.389-0.629-0.088-0.164-0.136-0.349-0.141-0.537-0-0.212 0.075-0.416 0.211-0.571 0.118-0.151 0.273-0.264 0.449-0.326 0.196-0.060 0.404-0.060 0.6 0 0.253 0.087 0.486 0.227 0.687 0.411 0.166 0.146 0.314 0.315 0.438 0.503 0.115 0.174 0.201 0.367 0.254 0.571l-0.308 0.171c-0.054-0.19-0.134-0.372-0.238-0.537-0.104-0.148-0.225-0.281-0.362-0.394-0.19-0.194-0.435-0.317-0.698-0.349-0.096-0.009-0.193 0.008-0.282 0.049s-0.166 0.104-0.226 0.185c-0.046 0.051-0.081 0.113-0.102 0.18s-0.029 0.138-0.022 0.209c0.013 0.144 0.057 0.283 0.13 0.406 0.076 0.131 0.184 0.303 0.33 0.509 0.145 0.195 0.275 0.401 0.389 0.617 0.090 0.164 0.14 0.348 0.146 0.537 0 0.212-0.075 0.416-0.211 0.571-0.118 0.153-0.276 0.266-0.454 0.326-0.196 0.062-0.405 0.062-0.6 0-0.254-0.087-0.49-0.227-0.692-0.411-0.218-0.201-0.401-0.441-0.541-0.709z">
            </path>
            <path
                d="M34.812 8.097l-0.763-1.143 0.281-0.211 1.758 2.651-0.281 0.211-0.763-1.143-2.823 2.086-0.227-0.349 2.818-2.103z">
            </path>
            <path
                d="M33.601 12.794c0.097-0.345 0.284-0.655 0.541-0.891 0.251-0.238 0.557-0.401 0.887-0.474 0.336-0.082 0.687-0.068 1.017 0.040 0.318 0.111 0.603 0.308 0.828 0.571 0.233 0.283 0.392 0.626 0.46 0.994 0.090 0.361 0.090 0.741 0 1.103-0.099 0.344-0.286 0.652-0.541 0.891-0.258 0.244-0.572 0.413-0.91 0.491s-0.69 0.062-1.021-0.046c-0.321-0.106-0.607-0.304-0.828-0.571-0.232-0.282-0.39-0.622-0.46-0.989-0.083-0.37-0.073-0.755 0.027-1.12zM34.309 14.611c0.181 0.217 0.415 0.377 0.676 0.463 0.27 0.083 0.554 0.092 0.828 0.028s0.529-0.199 0.74-0.394c0.2-0.194 0.347-0.441 0.427-0.714 0.075-0.289 0.083-0.593 0.022-0.886s-0.189-0.565-0.373-0.794c-0.188-0.218-0.43-0.378-0.698-0.463-0.273-0.077-0.56-0.077-0.833 0-0.275 0.056-0.53 0.192-0.736 0.394-0.202 0.195-0.349 0.444-0.427 0.72-0.073 0.29-0.073 0.596 0 0.886 0.059 0.284 0.188 0.546 0.373 0.76z">
            </path>
            <path
                d="M33.19 19.428l1.401-0.571c0-0.103 0.032-0.206 0.059-0.314l0.265-1.034-1.147-0.314 0.103-0.406 3.656 1.034-0.368 1.446c-0.083 0.422-0.305 0.799-0.627 1.063-0.148 0.109-0.318 0.18-0.496 0.207s-0.36 0.012-0.532-0.047c-0.261-0.060-0.495-0.212-0.663-0.431s-0.261-0.492-0.262-0.775l-1.493 0.571 0.103-0.429zM35.002 19.588c0.063 0.121 0.149 0.228 0.253 0.314s0.222 0.148 0.349 0.184c0.127 0.036 0.259 0.044 0.389 0.024s0.255-0.067 0.367-0.139c0.239-0.203 0.402-0.488 0.46-0.806l0.26-1.029-1.834-0.52-0.26 1.029c-0.1 0.306-0.094 0.64 0.016 0.943z">
            </path>
            <path
                d="M31.248 23.109l-0.276-0.223 1.623-2.257 3.018 2.417-1.568 2.189-0.276-0.223 1.325-1.846-1.082-0.863-1.184 1.651-0.27-0.217 1.212-1.651-1.12-0.897-1.401 1.92z">
            </path>
            <path
                d="M29.982 27.663l-0.773 0.046v-0.274l0.773-0.006-0.416-0.68 0.211-0.143 0.411 0.686 0.335-0.766 0.233 0.131-0.368 0.72 0.773-0.046v0.28h-0.784l0.416 0.68-0.211 0.143-0.411-0.686-0.357 0.743-0.227-0.137 0.395-0.691z">
            </path>
            <path
                d="M22.951 27.206l0.654 0.383c0.11-0.223 0.263-0.418 0.449-0.574s0.402-0.268 0.632-0.329c0.215-0.071 0.441-0.096 0.665-0.074 0.195 0.016 0.381 0.087 0.541 0.206 0.144 0.115 0.25 0.275 0.303 0.457 0.065 0.226 0.054 0.468-0.032 0.686-0.136 0.296-0.319 0.564-0.541 0.794 0.178 0.101 0.344 0.226 0.492 0.371 0.102 0.111 0.178 0.246 0.222 0.394 0.028 0.115 0.029 0.236 0.005 0.352s-0.074 0.224-0.146 0.317c-0.144 0.22-0.36 0.376-0.606 0.44-0.216 0.087-0.455 0.087-0.671 0-0.096-0.044-0.181-0.11-0.249-0.195s-0.116-0.184-0.141-0.291c-0.057-0.189-0.043-0.393 0.038-0.571 0.124-0.26 0.287-0.497 0.481-0.703l-1.303-0.766c-0.050 0.269-0.061 0.545-0.032 0.817h-0.33c-0.022-0.336 0.014-0.673 0.108-0.994l-0.681-0.4 0.141-0.32zM23.892 27.777l1.433 0.84c0.188-0.189 0.343-0.412 0.46-0.657 0.059-0.166 0.059-0.349 0-0.514-0.024-0.099-0.072-0.19-0.138-0.265s-0.149-0.131-0.241-0.164c-0.224-0.080-0.468-0.080-0.692 0-0.183 0.051-0.354 0.144-0.5 0.273s-0.263 0.289-0.344 0.47l0.022 0.017zM25.926 30.063c0.035-0.063 0.058-0.134 0.065-0.206s0-0.147-0.022-0.216c-0.033-0.113-0.093-0.215-0.173-0.297-0.138-0.123-0.288-0.228-0.449-0.314-0.164 0.171-0.308 0.363-0.427 0.571-0.065 0.13-0.081 0.281-0.043 0.423 0.017 0.065 0.047 0.126 0.088 0.178s0.092 0.095 0.15 0.124c0.138 0.055 0.29 0.055 0.427 0 0.147-0.041 0.275-0.137 0.362-0.269l0.022 0.006z">
            </path>
            <path
                d="M16.358 31.611l0.076-4h0.384l-0.059 3.2 1.536-2.663h0.189l1.439 2.709 0.054-3.183h0.384l-0.070 4h-0.33l-1.59-2.989-1.682 2.931-0.33-0.006z">
            </path>
            <path
                d="M14.476 27.429c0.247 0.249 0.424 0.566 0.511 0.915s0.080 0.717-0.019 1.062c-0.089 0.354-0.266 0.675-0.514 0.931-0.24 0.25-0.542 0.424-0.871 0.503-0.347 0.083-0.708 0.071-1.049-0.034-0.34-0.088-0.653-0.267-0.909-0.52-0.244-0.246-0.418-0.558-0.503-0.903-0.083-0.356-0.077-0.729 0.018-1.082s0.275-0.673 0.523-0.93c0.236-0.249 0.531-0.427 0.854-0.514 0.345-0.082 0.704-0.071 1.044 0.034 0.344 0.092 0.659 0.277 0.914 0.537zM12.632 27.229c-0.265 0.065-0.506 0.208-0.698 0.411-0.199 0.21-0.341 0.472-0.411 0.76-0.075 0.286-0.075 0.588 0 0.874 0.064 0.278 0.201 0.532 0.395 0.731 0.204 0.21 0.455 0.362 0.73 0.44 0.275 0.074 0.563 0.074 0.838 0 0.265-0.069 0.507-0.211 0.703-0.411 0.198-0.21 0.34-0.473 0.411-0.76 0.076-0.288 0.076-0.592 0-0.88-0.069-0.277-0.207-0.53-0.4-0.731-0.205-0.211-0.458-0.36-0.736-0.434-0.273-0.080-0.56-0.080-0.833 0z">
            </path>
            <path
                d="M8.537 24.571l0.146 1.571c0.093 0.042 0.183 0.090 0.27 0.143l0.882 0.537 0.595-1.109 0.352 0.211-1.893 3.446-1.233-0.749c-0.364-0.193-0.652-0.517-0.811-0.914-0.059-0.179-0.079-0.369-0.058-0.557s0.081-0.369 0.177-0.529c0.126-0.25 0.325-0.451 0.568-0.571 0.247-0.108 0.52-0.13 0.779-0.063l-0.157-1.68 0.384 0.263zM7.921 26.377c-0.127 0.034-0.246 0.094-0.351 0.178s-0.192 0.188-0.257 0.308c-0.065 0.12-0.107 0.253-0.122 0.39s-0.005 0.277 0.032 0.41c0.127 0.296 0.346 0.536 0.622 0.68l0.871 0.531 0.947-1.714-0.871-0.531c-0.25-0.198-0.558-0.297-0.871-0.28v0.029z">
            </path>
            <path
                d="M5.335 21.892l0.243-0.257 1.866 2.029-2.704 2.789-1.801-1.966 0.249-0.257 1.531 1.663 0.925-0.989-1.341-1.474 0.26-0.263 1.368 1.486 1.006-1.034-1.601-1.726z">
            </path>
            <path
                d="M1.316 19.646l0.13-0.789 0.254 0.040-0.146 0.811 0.719-0.28 0.087 0.251-0.73 0.263 0.6 0.537-0.173 0.206-0.579-0.571-0.135 0.811-0.26-0.051 0.151-0.811-0.725 0.274-0.081-0.223 0.725-0.269-0.6-0.531 0.178-0.206 0.584 0.537z">
            </path>
        </symbol>
        <symbol id="icon-menu" viewBox="0 0 32 32">
            <path
                d="M6.4 11.733v-2.133h19.2v2.133h-19.2zM6.4 17.067h19.2v-2.133h-19.2v2.133zM6.4 22.4h19.2v-2.133h-19.2v2.133z">
            </path>
        </symbol>
        <symbol id="icon-close" viewBox="0 0 32 32">
            <path
                d="M23.733 10.304l-1.504-1.504-5.963 5.963-5.963-5.963-1.504 1.504 5.963 5.963-5.963 5.963 1.504 1.504 5.963-5.963 5.963 5.963 1.504-1.504-5.963-5.963 5.963-5.963z">
            </path>
        </symbol>
    </defs>
</svg>